# xmcd CD database file
#
# Track frame offsets:
#	150
#	20295
#	40420
#	61239
#	76860
#	96605
#	112762
#	133799
#	153108
#	169799
#	188840
#	209067
#	228208
#	247161
#	262711
#
# Disc length: 3767 seconds
#
# Revision: 0
# Processed by: cddbd v1.4PL0 Copyright (c) Steve Scherf et al.
# Submitted via: CDex 1.50beta10
#
DISCID=c10eb50f
DTITLE=Various Artist - MerenFiesta '98
DYEAR=1900
DGENRE=Merengue
TTITLE0=Sauvemente
TTITLE1=Como Duele
TTITLE2=Fria
TTITLE3=Mujeres Mujeres
TTITLE4=La Chiflera
TTITLE5=Dale Cintura
TTITLE6=Abusadora
TTITLE7=Hay Que Olla
TTITLE8=Tilila Tilila
TTITLE9=Pegate un Chin
TTITLE10=Ahora es que falta Mambo
TTITLE11=Tu Sabe
TTITLE12=Los Cuernos
TTITLE13=Guallando
TTITLE14=EL Cepillo
EXTD=
EXTT0=
EXTT1=
EXTT2=
EXTT3=
EXTT4=
EXTT5=
EXTT6=
EXTT7=
EXTT8=
EXTT9=
EXTT10=
EXTT11=
EXTT12=
EXTT13=
EXTT14=
PLAYORDER=
